<?xml version="1.0" encoding="utf-8"?>
<!-- Generator: Adobe Illustrator 26.1.0, SVG Export Plug-In . SVG Version: 6.00 Build 0)  -->
<svg version="1.1" id="board" xmlns="http://www.w3.org/2000/svg" xmlns:xlink="http://www.w3.org/1999/xlink" x="0px" y="0px" viewBox="0 0 48 48" style="enable-background:new 0 0 48 48;" xml:space="preserve">
	<style type="text/css">
	.bg {
		fill:#F9F8F1;
	}

	.pink {
		fill:#F46095;
	}

	.grey {
		fill:#919191;
	}

	#heart-pink {
		opacity: 0;
	}

	#heart-container:hover #heart-pink,
	#heart-container:focus #heart-pink,
	#heart-container:active #heart-pink {
		opacity: 1;
	}
	</style>
	<g id="heart-container">
		<path id="background" class="bg" d="M8,0h32c4.4,0,8,3.6,8,8v32c0,4.4-3.6,8-8,8H8c-4.4,0-8-3.6-8-8V8C0,3.6,3.6,0,8,0z" />
		<path id="heart" class="grey" d="M24,35L13.7,24.9C7.9,18.4,17.4,9,24,14.7c6.4-5.7,16.1,3.6,10.3,10.1C34.3,24.8,24,35,24,35z
		M32.6,23.4c4.5-6-4.4-11.2-8.6-5.7c-4.4-5.5-13.1-0.3-8.7,5.7c0.1,0.1,8.4,8.3,8.5,8.4l8.4-8.3L32.6,23.4z" />
		<path id="heart-pink" class="pink" d="M24,35L13.7,24.9C7.9,18.4,17.4,9,24,14.7c6.4-5.7,16.1,3.6,10.3,10.1C34.3,24.8,24,35,24,35z
		" />
	</g>
</svg>