<?xml version="1.0" encoding="utf-8"?>
<!-- Generator: Adobe Illustrator 26.1.0, SVG Export Plug-In . SVG Version: 6.00 Build 0)  -->
<svg version="1.1" id="logo-g" xmlns="http://www.w3.org/2000/svg" xmlns:xlink="http://www.w3.org/1999/xlink" x="0px"
	y="0px" viewBox="0 0 500 300" style="enable-background:new 0 0 500 300;" xml:space="preserve">
	<style type="text/css">
		.st0 {
			clip-path: url(#SVGID_00000062176169490866212350000000187874967539270048_);
			fill: #70D6FF;
		}

		.st1 {
			clip-path: url(#SVGID_00000062176169490866212350000000187874967539270048_);
			fill: #092550;
		}

		.st2 {
			fill: #092550;
		}

    svg:hover #hand-icon,
		#signup-group:hover #hand-icon {
			-webkit-animation: shake-lr 0.7s cubic-bezier(0.455, 0.030, 0.515, 0.955) both;
			animation: shake-lr 0.7s cubic-bezier(0.455, 0.030, 0.515, 0.955) both;
		}

		/**
 * ----------------------------------------
 * animation shake-lr
 * ----------------------------------------
 */
		@-webkit-keyframes shake-lr {

			0%,
			100% {
				-webkit-transform: rotate(0deg);
				transform: rotate(0deg);
				-webkit-transform-origin: 50% 50%;
				transform-origin: 50% 50%;
			}

			10% {
				-webkit-transform: rotate(8deg);
				transform: rotate(8deg);
			}

			20%,
			40%,
			60% {
				-webkit-transform: rotate(-10deg);
				transform: rotate(-10deg);
			}

			30%,
			50%,
			70% {
				-webkit-transform: rotate(10deg);
				transform: rotate(10deg);
			}

			80% {
				-webkit-transform: rotate(-8deg);
				transform: rotate(-8deg);
			}

			90% {
				-webkit-transform: rotate(8deg);
				transform: rotate(8deg);
			}
		}

		@keyframes shake-lr {

			0%,
			100% {
				-webkit-transform: rotate(0deg);
				transform: rotate(0deg);
				-webkit-transform-origin: 50% 50%;
				transform-origin: 50% 50%;
			}

			10% {
				-webkit-transform: rotate(8deg);
				transform: rotate(8deg);
			}

			20%,
			40%,
			60% {
				-webkit-transform: rotate(-10deg);
				transform: rotate(-10deg);
			}

			30%,
			50%,
			70% {
				-webkit-transform: rotate(10deg);
				transform: rotate(10deg);
			}

			80% {
				-webkit-transform: rotate(-8deg);
				transform: rotate(-8deg);
			}

			90% {
				-webkit-transform: rotate(8deg);
				transform: rotate(8deg);
			}
		}
	</style>
	<g id="signup-group">
		<g id="hand-icon">
			<defs>
				<rect id="SVGID_1_" x="262.49" y="91" width="102.55" height="105.62" />
			</defs>
			<clipPath id="SVGID_00000079487745197357449210000008633911109096874642_">
				<use xlink:href="#SVGID_1_" style="overflow:visible;" />
			</clipPath>
			<path id="fullhand"
				style="clip-path:url(#SVGID_00000079487745197357449210000008633911109096874642_);fill:#70D6FF;" d="
			M316.88,189.72c7.86-3.38,12.96-10.27,15.99-16.91c4.74-10.38,21.49-14.68,25.65-17.64c5.78-4.11,0.47-12.42-8.12-11.04
			c-9.25,1.48-11.49,5.52-17.06,7.96c-2.85,1.24-4.85,0.84-5.23-4.42c-0.28-3.86,4.69-34.18,6.21-48.16
			c0.52-4.78-1.47-7.51-5.31-8.02c-4.35-0.58-6.61,1.79-7.53,6.16c-2.3,10.88-5.93,32.21-7.46,33.41
			c-8.21,5.16-19.15,11.91-28.93-1.2c0,0-4.68-24.59-5.41-29.56c-1.26-8.59-12.84-7.04-11.89,1.92c0.89,8.44,3.65,28.35,1.23,35.42
			c-2.13,6.22-5.88,27.55,2.39,40.54C279.57,191.01,301.33,196.41,316.88,189.72z" />
			<path id="fingerline2"
				style="clip-path:url(#SVGID_00000079487745197357449210000008633911109096874642_);fill:#092550;" d="
			M287.65,155.21c2.45,11.8,16.68,10.47,15.78-0.77c-0.73-9.14-3.5-25.12-4.4-29.11c-1.84-8.17-16.04-6.35-14.87,3.29
			C284.91,134.89,285.74,146.02,287.65,155.21L287.65,155.21z" />
			<path id="finger2"
				style="clip-path:url(#SVGID_00000079487745197357449210000008633911109096874642_);fill:#70D6FF;" d="
			M290.27,154.01c2.25,9.79,12.55,7.07,12.03-2.08c-0.52-9.16-2.64-23.11-3.28-27.15c-1.51-9.44-13.62-5.19-12.64,1.76
			C287.36,133.49,288.59,146.71,290.27,154.01L290.27,154.01z" />
			<path id="fingerline1"
				style="clip-path:url(#SVGID_00000079487745197357449210000008633911109096874642_);fill:#092550;" d="
			M298.69,157.78c0.2,14.04,15.81,13.27,17.04,2.77c1.06-9.11-1.19-29.19-1.35-33.28c-0.31-7.62-14.21-7.67-14.67,0.98
			C299.34,135.26,298.58,150.29,298.69,157.78L298.69,157.78z" />
			<path id="finger1"
				style="clip-path:url(#SVGID_00000079487745197357449210000008633911109096874642_);fill:#70D6FF;" d="
			M301.34,158.2c-0.4,8.73,11.37,9.72,12.23,0.59c0.86-9.13,0.65-28.65,0.58-32.74c-0.12-7.12-12-6.87-12.33,1.88
			C301.56,134.94,301.68,150.71,301.34,158.2z" />
		</g>
		<g id="sign-letters">
			<g>
				<path class="st2"
					d="M117.91,130.12c-1.64-0.98-3.33-1.85-5.07-2.62c-1.47-0.65-3.12-1.27-4.95-1.84
				c-1.83-0.57-3.61-0.86-5.36-0.86c-1.42,0-2.55,0.22-3.39,0.65c-0.85,0.44-1.27,1.17-1.27,2.21c0,0.76,0.25,1.39,0.74,1.88
				s1.2,0.94,2.13,1.35c0.93,0.41,2.06,0.8,3.39,1.19c1.34,0.38,2.85,0.85,4.54,1.39c2.67,0.82,5.08,1.72,7.24,2.7
				c2.15,0.98,3.99,2.14,5.52,3.48c1.53,1.34,2.7,2.96,3.52,4.86c0.82,1.91,1.23,4.23,1.23,6.95c0,3.49-0.64,6.42-1.92,8.79
				c-1.28,2.37-2.97,4.27-5.07,5.68c-2.1,1.42-4.47,2.44-7.11,3.07c-2.65,0.63-5.3,0.94-7.97,0.94c-2.13,0-4.31-0.16-6.54-0.49
				c-2.24-0.33-4.46-0.79-6.66-1.39c-2.21-0.6-4.33-1.31-6.38-2.13s-3.94-1.74-5.68-2.78l6.87-13.98c1.91,1.2,3.9,2.26,5.97,3.19
				c1.74,0.82,3.72,1.55,5.93,2.21c2.21,0.65,4.46,0.98,6.75,0.98c1.74,0,2.96-0.23,3.64-0.69c0.68-0.46,1.02-1.08,1.02-1.84
				c0-0.82-0.34-1.51-1.02-2.09c-0.68-0.57-1.62-1.08-2.82-1.51c-1.2-0.44-2.58-0.87-4.13-1.31c-1.55-0.44-3.2-0.95-4.95-1.55
				c-2.56-0.87-4.77-1.81-6.62-2.82c-1.85-1.01-3.38-2.15-4.58-3.43c-1.2-1.28-2.08-2.74-2.66-4.37c-0.57-1.64-0.86-3.52-0.86-5.64
				c0-3.22,0.58-6.05,1.76-8.5c1.17-2.45,2.77-4.5,4.78-6.13c2.02-1.64,4.32-2.87,6.91-3.72c2.59-0.84,5.33-1.27,8.22-1.27
				c2.13,0,4.2,0.2,6.21,0.61c2.02,0.41,3.97,0.93,5.85,1.55c1.88,0.63,3.64,1.31,5.27,2.04s3.11,1.43,4.42,2.08L117.91,130.12z" />
				<path class="st2"
					d="M132.13,122.59v-13.08h15.54v13.08H132.13z M132.13,169.2v-43.01h15.54v43.01H132.13z" />
				<path class="st2" d="M172.03,169.2c-2.78,0-5.33-0.56-7.65-1.68c-2.32-1.12-4.29-2.64-5.93-4.58c-1.64-1.93-2.9-4.21-3.8-6.83
				c-0.9-2.62-1.35-5.45-1.35-8.5c0-3.22,0.49-6.19,1.47-8.91c0.98-2.73,2.36-5.07,4.13-7.03c1.77-1.96,3.88-3.5,6.34-4.62
				c2.45-1.12,5.15-1.68,8.09-1.68c3.11,0,5.83,0.61,8.18,1.84c2.34,1.23,4.2,3.01,5.56,5.36v-6.38h13.49v39.08
				c0,3.38-0.63,6.43-1.88,9.16c-1.25,2.72-3.02,5.04-5.31,6.95s-5.04,3.39-8.26,4.46c-3.22,1.06-6.79,1.59-10.71,1.59
				c-4.58,0-8.56-0.71-11.94-2.13c-3.38-1.42-6.38-3.46-8.99-6.13l8.18-8.5c1.58,1.47,3.48,2.71,5.68,3.72
				c2.21,1.01,4.56,1.51,7.07,1.51c1.42,0,2.77-0.19,4.05-0.57c1.28-0.38,2.41-1,3.39-1.84c0.98-0.85,1.76-1.95,2.33-3.31
				c0.57-1.36,0.86-3,0.86-4.91v-2.78c-1.25,2.29-3.04,3.98-5.36,5.07C177.36,168.66,174.81,169.2,172.03,169.2z M177.59,156.94
				c1.58,0,2.96-0.37,4.13-1.1c1.17-0.74,2.28-1.84,3.31-3.31v-7.69c-0.76-1.96-1.89-3.52-3.39-4.66c-1.5-1.14-3.07-1.72-4.7-1.72
				c-1.09,0-2.11,0.26-3.07,0.78c-0.95,0.52-1.79,1.2-2.49,2.04c-0.71,0.85-1.25,1.85-1.64,3.03c-0.38,1.17-0.57,2.41-0.57,3.72
				c0,2.67,0.79,4.82,2.37,6.46C173.12,156.12,175.14,156.94,177.59,156.94z" />
				<path class="st2" d="M251.67,169.2h-15.54V145c0-2.13-0.48-3.67-1.43-4.62c-0.95-0.95-2.06-1.43-3.31-1.43
				c-1.31,0-2.7,0.57-4.17,1.72s-2.56,2.62-3.27,4.42v24.12h-15.54v-43.01h13.98v6.38c1.53-2.34,3.67-4.13,6.42-5.36
				c2.75-1.23,6.01-1.84,9.77-1.84c2.94,0,5.27,0.53,6.99,1.59s3.03,2.39,3.92,3.97c0.9,1.58,1.48,3.27,1.76,5.07
				c0.27,1.8,0.41,3.43,0.41,4.91V169.2z" />
			</g>
		</g>
		<path id="p_-letter" class="st2" d="M402.21,170.02c-3.11,0-5.81-0.61-8.09-1.84c-2.29-1.23-4.06-3.01-5.32-5.36v23.79h-15.54
		v-60.42h13.49v6.46c1.53-2.34,3.41-4.14,5.64-5.4c2.23-1.25,4.99-1.88,8.26-1.88c2.83,0,5.48,0.56,7.93,1.68
		c2.45,1.12,4.55,2.66,6.3,4.62c1.74,1.96,3.12,4.31,4.13,7.03c1.01,2.73,1.51,5.67,1.51,8.83c0,3.22-0.46,6.2-1.39,8.95
		c-0.93,2.75-2.21,5.14-3.84,7.15s-3.57,3.58-5.81,4.7C407.25,169.46,404.83,170.02,402.21,170.02z M396.82,156.94
		c1.14,0,2.19-0.25,3.15-0.74c0.95-0.49,1.77-1.17,2.45-2.04c0.68-0.87,1.23-1.88,1.63-3.03c0.41-1.14,0.61-2.37,0.61-3.68
		c0-2.73-0.78-4.91-2.33-6.54s-3.61-2.45-6.17-2.45c-2.89,0-5.34,1.47-7.36,4.42v7.44c0.76,1.91,1.88,3.49,3.35,4.74
		C393.63,156.31,395.18,156.94,396.82,156.94z" />
	</g>
</svg>
