<?xml version="1.0" encoding="utf-8"?>
<!-- Generator: Adobe Illustrator 26.1.0, SVG Export Plug-In . SVG Version: 6.00 Build 0)  -->
<svg version="1.1" id="user-icon" xmlns="http://www.w3.org/2000/svg" xmlns:xlink="http://www.w3.org/1999/xlink" x="0px" y="0px"
	 viewBox="0 0 41 40" style="enable-background:new 0 0 41 40;" xml:space="preserve">
<style type="text/css">
	.st0{fill:#F9F8F1;}
	.st1{fill:#092550;}
</style>
<path class="st0" d="M8,0h25c4.4,0,8,3.6,8,8v24c0,4.4-3.6,8-8,8H8c-4.4,0-8-3.6-8-8V8C0,3.6,3.6,0,8,0z"/>
<circle class="st1" cx="21" cy="13" r="4"/>
<path class="st1" d="M22.2,29.4c-0.6,0.8-1.8,0.8-2.4,0l-6-8c-0.7-1,0-2.4,1.2-2.4h12c1.2,0,1.9,1.4,1.2,2.4L22.2,29.4z"/>
</svg>
